<mxfile host="app.diagrams.net" agent="Mozilla/5.0 (Windows NT 10.0; Win64; x64) AppleWebKit/537.36 (KHTML, like Gecko) Chrome/130.0.0.0 Safari/537.36" version="26.1.0">
  <diagram name="Trang-1" id="njm_DmdBem290Ls-gOoM">
    <mxGraphModel dx="2474" dy="-241" grid="1" gridSize="10" guides="1" tooltips="1" connect="1" arrows="1" fold="1" page="1" pageScale="1" pageWidth="827" pageHeight="1169" math="0" shadow="0">
      <root>
        <mxCell id="0" />
        <mxCell id="1" parent="0" />
        <mxCell id="bvU_btBuVGdc_PA4ARff-109" value="" style="edgeStyle=orthogonalEdgeStyle;rounded=0;orthogonalLoop=1;jettySize=auto;html=1;exitX=0.5;exitY=1;exitDx=0;exitDy=0;entryX=0.5;entryY=0;entryDx=0;entryDy=0;" edge="1" parent="1" source="bvU_btBuVGdc_PA4ARff-110" target="bvU_btBuVGdc_PA4ARff-131">
          <mxGeometry relative="1" as="geometry">
            <mxPoint x="-95" y="1340" as="sourcePoint" />
            <mxPoint x="-145" y="1370" as="targetPoint" />
          </mxGeometry>
        </mxCell>
        <mxCell id="bvU_btBuVGdc_PA4ARff-110" value="" style="ellipse;fillColor=strokeColor;html=1;" vertex="1" parent="1">
          <mxGeometry x="-160" y="1300" width="30" height="30" as="geometry" />
        </mxCell>
        <mxCell id="bvU_btBuVGdc_PA4ARff-111" value="Khách hàng" style="swimlane;whiteSpace=wrap;html=1;" vertex="1" parent="1">
          <mxGeometry x="-280" y="1250" width="270" height="1010" as="geometry" />
        </mxCell>
        <mxCell id="bvU_btBuVGdc_PA4ARff-112" value="Hệ thống" style="swimlane;whiteSpace=wrap;html=1;" vertex="1" parent="1">
          <mxGeometry x="-10" y="1250" width="270" height="1010" as="geometry" />
        </mxCell>
        <mxCell id="bvU_btBuVGdc_PA4ARff-113" value="Quét QR" style="swimlane;whiteSpace=wrap;html=1;" vertex="1" parent="1">
          <mxGeometry x="-280" y="1230" width="540" height="1030" as="geometry" />
        </mxCell>
        <mxCell id="bvU_btBuVGdc_PA4ARff-114" style="edgeStyle=orthogonalEdgeStyle;rounded=0;orthogonalLoop=1;jettySize=auto;html=1;exitX=1;exitY=0.5;exitDx=0;exitDy=0;entryX=1;entryY=0.5;entryDx=0;entryDy=0;" edge="1" parent="bvU_btBuVGdc_PA4ARff-113" source="bvU_btBuVGdc_PA4ARff-116" target="bvU_btBuVGdc_PA4ARff-131">
          <mxGeometry relative="1" as="geometry">
            <mxPoint x="147.5" y="155" as="targetPoint" />
            <Array as="points">
              <mxPoint x="500" y="315" />
              <mxPoint x="500" y="215" />
            </Array>
          </mxGeometry>
        </mxCell>
        <mxCell id="bvU_btBuVGdc_PA4ARff-115" value="[không hợp lệ]" style="edgeLabel;html=1;align=center;verticalAlign=middle;resizable=0;points=[];" vertex="1" connectable="0" parent="bvU_btBuVGdc_PA4ARff-114">
          <mxGeometry x="0.0347" y="-2" relative="1" as="geometry">
            <mxPoint as="offset" />
          </mxGeometry>
        </mxCell>
        <mxCell id="bvU_btBuVGdc_PA4ARff-116" value="" style="rhombus;whiteSpace=wrap;html=1;" vertex="1" parent="bvU_btBuVGdc_PA4ARff-113">
          <mxGeometry x="392.5" y="300" width="25" height="30" as="geometry" />
        </mxCell>
        <mxCell id="bvU_btBuVGdc_PA4ARff-117" value="Điền thông tin giao dịch" style="rounded=1;whiteSpace=wrap;html=1;fontSize=12;glass=0;strokeWidth=1;shadow=0;" vertex="1" parent="bvU_btBuVGdc_PA4ARff-113">
          <mxGeometry x="80.01" y="295" width="120" height="40" as="geometry" />
        </mxCell>
        <mxCell id="bvU_btBuVGdc_PA4ARff-118" value="" style="edgeStyle=segmentEdgeStyle;endArrow=classic;html=1;curved=0;rounded=0;endSize=8;startSize=8;exitX=0;exitY=0.5;exitDx=0;exitDy=0;entryX=1;entryY=0.5;entryDx=0;entryDy=0;" edge="1" parent="bvU_btBuVGdc_PA4ARff-113" source="bvU_btBuVGdc_PA4ARff-116" target="bvU_btBuVGdc_PA4ARff-117">
          <mxGeometry width="50" height="50" relative="1" as="geometry">
            <mxPoint x="250" y="270" as="sourcePoint" />
            <mxPoint x="300" y="220" as="targetPoint" />
          </mxGeometry>
        </mxCell>
        <mxCell id="bvU_btBuVGdc_PA4ARff-119" value="[hợp lệ]" style="edgeLabel;html=1;align=center;verticalAlign=middle;resizable=0;points=[];" vertex="1" connectable="0" parent="bvU_btBuVGdc_PA4ARff-118">
          <mxGeometry x="-0.0563" relative="1" as="geometry">
            <mxPoint as="offset" />
          </mxGeometry>
        </mxCell>
        <mxCell id="bvU_btBuVGdc_PA4ARff-120" style="edgeStyle=orthogonalEdgeStyle;rounded=0;orthogonalLoop=1;jettySize=auto;html=1;exitX=0.5;exitY=1;exitDx=0;exitDy=0;entryX=0;entryY=0.5;entryDx=0;entryDy=0;" edge="1" parent="bvU_btBuVGdc_PA4ARff-113" source="bvU_btBuVGdc_PA4ARff-121" target="bvU_btBuVGdc_PA4ARff-122">
          <mxGeometry relative="1" as="geometry" />
        </mxCell>
        <mxCell id="bvU_btBuVGdc_PA4ARff-121" value="Nhập mã pin" style="rounded=1;whiteSpace=wrap;html=1;fontSize=12;glass=0;strokeWidth=1;shadow=0;" vertex="1" parent="bvU_btBuVGdc_PA4ARff-113">
          <mxGeometry x="93.13" y="475" width="93.75" height="30" as="geometry" />
        </mxCell>
        <mxCell id="bvU_btBuVGdc_PA4ARff-122" value="Kiểm tra mã pin" style="rounded=1;whiteSpace=wrap;html=1;" vertex="1" parent="bvU_btBuVGdc_PA4ARff-113">
          <mxGeometry x="300" y="525" width="106.25" height="20" as="geometry" />
        </mxCell>
        <mxCell id="bvU_btBuVGdc_PA4ARff-123" style="edgeStyle=orthogonalEdgeStyle;rounded=0;orthogonalLoop=1;jettySize=auto;html=1;exitX=1;exitY=0.5;exitDx=0;exitDy=0;entryX=0.5;entryY=0;entryDx=0;entryDy=0;" edge="1" parent="bvU_btBuVGdc_PA4ARff-113" source="bvU_btBuVGdc_PA4ARff-125" target="bvU_btBuVGdc_PA4ARff-141">
          <mxGeometry relative="1" as="geometry">
            <mxPoint x="470" y="585" as="targetPoint" />
          </mxGeometry>
        </mxCell>
        <mxCell id="bvU_btBuVGdc_PA4ARff-124" value="[không hợp lệ]" style="edgeLabel;html=1;align=center;verticalAlign=middle;resizable=0;points=[];" vertex="1" connectable="0" parent="bvU_btBuVGdc_PA4ARff-123">
          <mxGeometry x="-0.265" relative="1" as="geometry">
            <mxPoint as="offset" />
          </mxGeometry>
        </mxCell>
        <mxCell id="bvU_btBuVGdc_PA4ARff-125" value="" style="rhombus;whiteSpace=wrap;html=1;" vertex="1" parent="bvU_btBuVGdc_PA4ARff-113">
          <mxGeometry x="340.63" y="570" width="25" height="30" as="geometry" />
        </mxCell>
        <mxCell id="bvU_btBuVGdc_PA4ARff-126" value="" style="edgeStyle=orthogonalEdgeStyle;rounded=0;orthogonalLoop=1;jettySize=auto;html=1;" edge="1" parent="bvU_btBuVGdc_PA4ARff-113" source="bvU_btBuVGdc_PA4ARff-122" target="bvU_btBuVGdc_PA4ARff-125">
          <mxGeometry relative="1" as="geometry" />
        </mxCell>
        <mxCell id="bvU_btBuVGdc_PA4ARff-127" style="edgeStyle=orthogonalEdgeStyle;rounded=0;orthogonalLoop=1;jettySize=auto;html=1;exitX=0.5;exitY=1;exitDx=0;exitDy=0;entryX=0;entryY=0.5;entryDx=0;entryDy=0;" edge="1" parent="bvU_btBuVGdc_PA4ARff-113" source="bvU_btBuVGdc_PA4ARff-128" target="bvU_btBuVGdc_PA4ARff-144">
          <mxGeometry relative="1" as="geometry">
            <mxPoint x="387.1300000000001" y="835" as="targetPoint" />
          </mxGeometry>
        </mxCell>
        <mxCell id="bvU_btBuVGdc_PA4ARff-128" value="Hiển thị xác nhận giao dịch." style="rounded=1;whiteSpace=wrap;html=1;fontSize=12;glass=0;strokeWidth=1;shadow=0;" vertex="1" parent="bvU_btBuVGdc_PA4ARff-113">
          <mxGeometry x="305.62" y="690" width="95" height="40" as="geometry" />
        </mxCell>
        <mxCell id="bvU_btBuVGdc_PA4ARff-129" value="[hợp lệ]" style="edgeStyle=orthogonalEdgeStyle;rounded=0;orthogonalLoop=1;jettySize=auto;html=1;entryX=0.5;entryY=0;entryDx=0;entryDy=0;" edge="1" parent="bvU_btBuVGdc_PA4ARff-113" source="bvU_btBuVGdc_PA4ARff-125" target="bvU_btBuVGdc_PA4ARff-128">
          <mxGeometry relative="1" as="geometry">
            <mxPoint x="337.521739130435" y="610" as="targetPoint" />
          </mxGeometry>
        </mxCell>
        <mxCell id="bvU_btBuVGdc_PA4ARff-130" style="edgeStyle=orthogonalEdgeStyle;rounded=0;orthogonalLoop=1;jettySize=auto;html=1;exitX=0.5;exitY=1;exitDx=0;exitDy=0;entryX=0;entryY=0.5;entryDx=0;entryDy=0;" edge="1" parent="bvU_btBuVGdc_PA4ARff-113" source="bvU_btBuVGdc_PA4ARff-131" target="bvU_btBuVGdc_PA4ARff-132">
          <mxGeometry relative="1" as="geometry" />
        </mxCell>
        <mxCell id="bvU_btBuVGdc_PA4ARff-131" value="Chọn &quot;Quét QR&quot;" style="rounded=1;whiteSpace=wrap;html=1;fontSize=12;glass=0;strokeWidth=1;shadow=0;" vertex="1" parent="bvU_btBuVGdc_PA4ARff-113">
          <mxGeometry x="75" y="195" width="120" height="40" as="geometry" />
        </mxCell>
        <mxCell id="bvU_btBuVGdc_PA4ARff-132" value="Kiểm tra mã QR" style="rounded=1;whiteSpace=wrap;html=1;fontSize=12;glass=0;strokeWidth=1;shadow=0;" vertex="1" parent="bvU_btBuVGdc_PA4ARff-113">
          <mxGeometry x="337.5" y="235" width="135" height="40" as="geometry" />
        </mxCell>
        <mxCell id="bvU_btBuVGdc_PA4ARff-133" style="edgeStyle=orthogonalEdgeStyle;rounded=0;orthogonalLoop=1;jettySize=auto;html=1;exitX=0.5;exitY=1;exitDx=0;exitDy=0;entryX=0.5;entryY=0;entryDx=0;entryDy=0;" edge="1" parent="bvU_btBuVGdc_PA4ARff-113" source="bvU_btBuVGdc_PA4ARff-132" target="bvU_btBuVGdc_PA4ARff-116">
          <mxGeometry relative="1" as="geometry" />
        </mxCell>
        <mxCell id="bvU_btBuVGdc_PA4ARff-134" value="Yêu cầu mã pin" style="rounded=1;whiteSpace=wrap;html=1;fontSize=12;glass=0;strokeWidth=1;shadow=0;" vertex="1" parent="bvU_btBuVGdc_PA4ARff-113">
          <mxGeometry x="332.5" y="380" width="145" height="40" as="geometry" />
        </mxCell>
        <mxCell id="bvU_btBuVGdc_PA4ARff-135" style="edgeStyle=orthogonalEdgeStyle;rounded=0;orthogonalLoop=1;jettySize=auto;html=1;exitX=0.5;exitY=1;exitDx=0;exitDy=0;entryX=0;entryY=0.5;entryDx=0;entryDy=0;" edge="1" parent="bvU_btBuVGdc_PA4ARff-113" source="bvU_btBuVGdc_PA4ARff-117" target="bvU_btBuVGdc_PA4ARff-134">
          <mxGeometry relative="1" as="geometry" />
        </mxCell>
        <mxCell id="bvU_btBuVGdc_PA4ARff-136" style="edgeStyle=orthogonalEdgeStyle;rounded=0;orthogonalLoop=1;jettySize=auto;html=1;exitX=0.5;exitY=1;exitDx=0;exitDy=0;entryX=0.5;entryY=0;entryDx=0;entryDy=0;" edge="1" parent="bvU_btBuVGdc_PA4ARff-113" source="bvU_btBuVGdc_PA4ARff-134" target="bvU_btBuVGdc_PA4ARff-121">
          <mxGeometry relative="1" as="geometry" />
        </mxCell>
        <mxCell id="bvU_btBuVGdc_PA4ARff-137" style="edgeStyle=orthogonalEdgeStyle;rounded=0;orthogonalLoop=1;jettySize=auto;html=1;exitX=0.5;exitY=1;exitDx=0;exitDy=0;" edge="1" parent="bvU_btBuVGdc_PA4ARff-113" source="bvU_btBuVGdc_PA4ARff-141">
          <mxGeometry relative="1" as="geometry">
            <mxPoint x="474.8648648648648" y="740" as="targetPoint" />
          </mxGeometry>
        </mxCell>
        <mxCell id="bvU_btBuVGdc_PA4ARff-138" value="[đúng]" style="edgeLabel;html=1;align=center;verticalAlign=middle;resizable=0;points=[];" vertex="1" connectable="0" parent="bvU_btBuVGdc_PA4ARff-137">
          <mxGeometry x="-0.2554" y="-1" relative="1" as="geometry">
            <mxPoint as="offset" />
          </mxGeometry>
        </mxCell>
        <mxCell id="bvU_btBuVGdc_PA4ARff-139" style="edgeStyle=orthogonalEdgeStyle;rounded=0;orthogonalLoop=1;jettySize=auto;html=1;exitX=1;exitY=0.5;exitDx=0;exitDy=0;entryX=1;entryY=0.5;entryDx=0;entryDy=0;" edge="1" parent="bvU_btBuVGdc_PA4ARff-113" source="bvU_btBuVGdc_PA4ARff-141" target="bvU_btBuVGdc_PA4ARff-121">
          <mxGeometry relative="1" as="geometry">
            <Array as="points">
              <mxPoint x="520" y="640" />
              <mxPoint x="520" y="490" />
            </Array>
          </mxGeometry>
        </mxCell>
        <mxCell id="bvU_btBuVGdc_PA4ARff-140" value="[sai]" style="edgeLabel;html=1;align=center;verticalAlign=middle;resizable=0;points=[];" vertex="1" connectable="0" parent="bvU_btBuVGdc_PA4ARff-139">
          <mxGeometry x="0.0065" y="-1" relative="1" as="geometry">
            <mxPoint as="offset" />
          </mxGeometry>
        </mxCell>
        <mxCell id="bvU_btBuVGdc_PA4ARff-141" value="Sai quá&amp;nbsp;&lt;div&gt;5 lần&lt;/div&gt;" style="rhombus;whiteSpace=wrap;html=1;" vertex="1" parent="bvU_btBuVGdc_PA4ARff-113">
          <mxGeometry x="440" y="610" width="70" height="60" as="geometry" />
        </mxCell>
        <mxCell id="bvU_btBuVGdc_PA4ARff-142" style="edgeStyle=orthogonalEdgeStyle;rounded=0;orthogonalLoop=1;jettySize=auto;html=1;exitX=0.5;exitY=1;exitDx=0;exitDy=0;entryX=1;entryY=0.5;entryDx=0;entryDy=0;" edge="1" parent="bvU_btBuVGdc_PA4ARff-113" source="bvU_btBuVGdc_PA4ARff-143" target="bvU_btBuVGdc_PA4ARff-144">
          <mxGeometry relative="1" as="geometry">
            <mxPoint x="412.1300000000001" y="835" as="targetPoint" />
          </mxGeometry>
        </mxCell>
        <mxCell id="bvU_btBuVGdc_PA4ARff-143" value="Khoá tài khoản" style="rounded=1;whiteSpace=wrap;html=1;fontSize=12;glass=0;strokeWidth=1;shadow=0;" vertex="1" parent="bvU_btBuVGdc_PA4ARff-113">
          <mxGeometry x="427.5" y="740" width="95" height="40" as="geometry" />
        </mxCell>
        <mxCell id="bvU_btBuVGdc_PA4ARff-144" value="Thông báo" style="rounded=1;whiteSpace=wrap;html=1;fontSize=12;glass=0;strokeWidth=1;shadow=0;" vertex="1" parent="bvU_btBuVGdc_PA4ARff-113">
          <mxGeometry x="375" y="880" width="60" height="30" as="geometry" />
        </mxCell>
        <mxCell id="bvU_btBuVGdc_PA4ARff-145" value="" style="ellipse;whiteSpace=wrap;html=1;aspect=fixed;" vertex="1" parent="bvU_btBuVGdc_PA4ARff-113">
          <mxGeometry x="385" y="950" width="40" height="40" as="geometry" />
        </mxCell>
        <mxCell id="bvU_btBuVGdc_PA4ARff-146" value="" style="ellipse;fillColor=strokeColor;html=1;" vertex="1" parent="bvU_btBuVGdc_PA4ARff-113">
          <mxGeometry x="390" y="955" width="30" height="30" as="geometry" />
        </mxCell>
        <mxCell id="bvU_btBuVGdc_PA4ARff-147" style="edgeStyle=orthogonalEdgeStyle;rounded=0;orthogonalLoop=1;jettySize=auto;html=1;entryX=0.5;entryY=0;entryDx=0;entryDy=0;" edge="1" parent="bvU_btBuVGdc_PA4ARff-113" source="bvU_btBuVGdc_PA4ARff-144" target="bvU_btBuVGdc_PA4ARff-145">
          <mxGeometry relative="1" as="geometry" />
        </mxCell>
      </root>
    </mxGraphModel>
  </diagram>
</mxfile>
